<svg width="187" height="30" viewBox="0 0 187 30" fill="none" xmlns="http://www.w3.org/2000/svg">
<g clip-path="url(#clip0_1079_1169)">
<path d="M23.9863 8.4353C25.1063 9.61468 25.6682 11.2549 25.6682 13.3559V22.5215H21.0213V14.0003C21.0213 12.9888 20.7631 12.2038 20.243 11.6532C19.7229 11.0987 19.0091 10.8253 18.098 10.8253C17.1868 10.8253 16.473 11.1026 15.9529 11.6532C15.4328 12.2078 15.1746 12.9888 15.1746 14.0003V22.5215H10.5277V14.0003C10.5277 12.9888 10.2696 12.2038 9.74943 11.6532C9.22931 11.0987 8.51557 10.8253 7.60441 10.8253C6.69324 10.8253 5.9795 11.1026 5.45938 11.6532C4.93926 12.2078 4.68109 12.9888 4.68109 14.0003V22.5215H0V6.83415H4.6735V8.80239C5.14806 8.14631 5.76689 7.62692 6.53379 7.2403C7.30068 6.85758 8.16629 6.66232 9.1306 6.66232C10.2771 6.66232 11.3022 6.91616 12.2058 7.41994C13.1093 7.92371 13.8155 8.64618 14.3242 9.58344C14.8519 8.72038 15.5733 8.01744 16.4844 7.47461C17.3956 6.93178 18.3903 6.65842 19.4647 6.65842C21.3592 6.65842 22.8664 7.24811 23.9901 8.43139L23.9863 8.4353Z" fill="#131313"/>
<path d="M33.6219 1.71439V22.5215H28.9484V1.71439H33.6219Z" fill="#131313"/>
<path d="M36.9704 10.4036C37.5626 9.18512 38.3675 8.24786 39.3888 7.59178C40.41 6.93571 41.549 6.60767 42.8056 6.60767C43.88 6.60767 44.8254 6.83417 45.634 7.28327C46.4427 7.73237 47.0691 8.32206 47.5057 9.05625V6.83417H52.1792V22.5254H47.5057V20.3033C47.0501 21.0336 46.4161 21.6233 45.6074 22.0763C44.795 22.5254 43.8535 22.7519 42.779 22.7519C41.5414 22.7519 40.41 22.42 39.3888 21.7522C38.3675 21.0883 37.5626 20.1393 36.9704 18.9131C36.3781 17.6868 36.082 16.2653 36.082 14.6524C36.082 13.0396 36.3781 11.6259 36.9704 10.4075V10.4036ZM46.5376 11.8368C45.8884 11.1416 45.1025 10.798 44.1724 10.798C43.2422 10.798 42.4563 11.1416 41.8071 11.8251C41.1579 12.5085 40.8352 13.4535 40.8352 14.6524C40.8352 15.8514 41.1579 16.8042 41.8071 17.5072C42.4525 18.2101 43.2422 18.5616 44.1724 18.5616C45.1025 18.5616 45.8884 18.214 46.5376 17.5228C47.183 16.8277 47.5095 15.8826 47.5095 14.6837C47.5095 13.4848 47.1868 12.5358 46.5376 11.8446V11.8368Z" fill="#131313"/>
<path d="M55.5315 10.4035C56.1238 9.1851 56.9286 8.24784 57.9499 7.59176C58.9712 6.93568 60.1101 6.60764 61.3668 6.60764C62.369 6.60764 63.284 6.82243 64.1154 7.25591C64.9431 7.68939 65.5961 8.26737 66.0706 8.99765V1.71439H70.7441V22.5215H66.0706V20.2721C65.634 21.0219 65.0076 21.6233 64.1989 22.0724C63.3865 22.5215 62.445 22.748 61.3705 22.748C60.1139 22.748 58.975 22.416 57.9537 21.7482C56.9324 21.0843 56.1276 20.1354 55.5353 18.9091C54.9431 17.6829 54.6469 16.2614 54.6469 14.6485C54.6469 13.0357 54.9431 11.622 55.5353 10.4035H55.5315ZM65.0987 11.8368C64.4495 11.1416 63.6636 10.798 62.7335 10.798C61.8034 10.798 61.0175 11.1416 60.3683 11.825C59.7191 12.5085 59.3964 13.4535 59.3964 14.6524C59.3964 15.8513 59.7191 16.8042 60.3683 17.5071C61.0137 18.2101 61.8034 18.5616 62.7335 18.5616C63.6636 18.5616 64.4495 18.214 65.0987 17.5228C65.7441 16.8276 66.0706 15.8826 66.0706 14.6837C66.0706 13.4848 65.7479 12.5358 65.0987 11.8446V11.8368Z" fill="#131313"/>
<path d="M88.4282 15.8318H77.8512C77.9233 16.8081 78.2308 17.554 78.7661 18.0656C79.3052 18.5811 79.9658 18.8389 80.7479 18.8389C81.9134 18.8389 82.7259 18.3312 83.1815 17.3197H88.1549C87.9005 18.3507 87.4412 19.2801 86.773 20.1042C86.1086 20.9282 85.2733 21.5764 84.2711 22.0451C83.2688 22.5137 82.1488 22.748 80.9074 22.748C79.4115 22.748 78.0828 22.42 76.9172 21.7639C75.7517 21.1078 74.8405 20.1705 74.1837 18.9521C73.527 17.7337 73.2005 16.3083 73.2005 14.6798C73.2005 13.0513 73.5232 11.6259 74.1724 10.4075C74.8178 9.18903 75.7251 8.25177 76.8907 7.59569C78.0562 6.93961 79.3964 6.61157 80.9074 6.61157C82.4184 6.61157 83.694 6.9318 84.8443 7.56835C85.9909 8.20491 86.8907 9.11483 87.5361 10.2942C88.1815 11.4736 88.508 12.8521 88.508 14.4259C88.508 14.875 88.4814 15.3437 88.4245 15.8318H88.4282ZM83.7282 13.1606C83.7282 12.3366 83.4548 11.6806 82.9081 11.1924C82.3614 10.7043 81.6781 10.4621 80.858 10.4621C80.038 10.4621 79.4153 10.6964 78.8762 11.1651C78.3371 11.6337 78.0068 12.2976 77.8778 13.1606H83.7282Z" fill="#131313"/>
<path d="M93.2916 5.20177C94.0926 5.20177 94.7532 4.95183 95.2734 4.45587C95.7935 3.9599 96.0516 3.34678 96.0516 2.6126C96.0516 1.87842 95.7935 1.23796 95.2734 0.741993C94.7532 0.246029 94.0926 -0.00390625 93.2916 -0.00390625C92.4905 -0.00390625 91.8034 0.246029 91.2832 0.741993C90.7631 1.23796 90.5049 1.86279 90.5049 2.6126C90.5049 3.3624 90.7631 3.9599 91.2832 4.45587C91.8034 4.95183 92.4715 5.20177 93.2916 5.20177Z" fill="#6553C9"/>
<path d="M90.9681 24.603C90.9681 25.0716 90.858 25.4075 90.6416 25.6144C90.4214 25.8214 90.057 25.9229 89.5482 25.9229H88.4283V30H90.2582C91.9514 30 93.2726 29.5743 94.2217 28.7191C95.1708 27.8678 95.6416 26.4736 95.6416 24.5444V6.83417H90.9681V24.603Z" fill="#131313"/>
<path d="M101.917 21.7639C100.725 21.1078 99.7836 20.1705 99.1002 18.9521C98.4169 17.7337 98.0752 16.3083 98.0752 14.6798C98.0752 13.0513 98.4207 11.6493 99.1154 10.4192C99.8064 9.19293 100.756 8.24786 101.959 7.59178C103.162 6.93571 104.51 6.60767 106.006 6.60767C107.502 6.60767 108.85 6.93571 110.053 7.59178C111.257 8.24786 112.202 9.18903 112.897 10.4192C113.588 11.6454 113.937 13.0669 113.937 14.6798C113.937 16.2926 113.588 17.7102 112.885 18.9404C112.183 20.1666 111.226 21.1117 110.015 21.7678C108.804 22.4239 107.449 22.7519 105.957 22.7519C104.465 22.7519 103.117 22.4239 101.925 21.7678L101.917 21.7639ZM108.231 17.5736C108.861 16.898 109.172 15.9334 109.172 14.6759C109.172 13.4184 108.869 12.4538 108.257 11.7782C107.646 11.1026 106.894 10.7667 106.002 10.7667C105.11 10.7667 104.336 11.0987 103.732 11.7665C103.132 12.4304 102.828 13.4028 102.828 14.6759C102.828 15.949 103.125 16.898 103.717 17.5736C104.309 18.2492 105.053 18.585 105.945 18.585C106.838 18.585 107.601 18.2492 108.227 17.5736H108.231Z" fill="#131313"/>
<path d="M123.28 18.0227L126.587 6.83026H131.56L126.147 22.5215H120.38L114.966 6.83026H119.97L123.276 18.0227H123.28Z" fill="#131313"/>
<path d="M136.181 22.045C135.14 21.5764 134.32 20.936 133.721 20.1198C133.121 19.3036 132.783 18.3898 132.711 17.3783H137.331C137.384 17.9211 137.631 18.3624 138.068 18.6983C138.504 19.0341 139.043 19.2059 139.681 19.2059C140.266 19.2059 140.714 19.0888 141.033 18.8545C141.352 18.6202 141.511 18.3156 141.511 17.9406C141.511 17.4915 141.283 17.1596 140.828 16.9409C140.372 16.7261 139.636 16.4879 138.614 16.2223C137.521 15.9607 136.61 15.6834 135.881 15.3944C135.152 15.1055 134.522 14.6446 133.994 14.0159C133.466 13.3871 133.2 12.5397 133.2 11.4697C133.2 10.5715 133.443 9.75138 133.926 9.00938C134.408 8.26739 135.118 7.68551 136.059 7.25203C136.997 6.82245 138.113 6.60376 139.408 6.60376C141.321 6.60376 142.828 7.09191 143.933 8.06432C145.038 9.03672 145.668 10.3333 145.831 11.9461H141.511C141.439 11.4033 141.207 10.9698 140.812 10.6535C140.418 10.3372 139.905 10.177 139.267 10.177C138.721 10.177 138.303 10.2864 138.011 10.5012C137.718 10.716 137.574 11.0128 137.574 11.3877C137.574 11.8368 137.806 12.1765 138.273 12.3991C138.736 12.6256 139.461 12.8482 140.444 13.0747C141.576 13.3754 142.494 13.6683 143.204 13.9612C143.914 14.2541 144.541 14.7188 145.076 15.3671C145.615 16.0154 145.892 16.8823 145.911 17.968C145.911 18.8857 145.661 19.7058 145.159 20.4283C144.658 21.1508 143.937 21.717 142.999 22.131C142.062 22.541 140.972 22.748 139.734 22.748C138.405 22.748 137.221 22.5137 136.181 22.045Z" fill="#131313"/>
<path d="M158.102 22.5215L153.455 15.9412V22.5215H148.781V1.71439H153.455V13.2153L158.075 6.83415H163.842L157.502 14.7071L163.899 22.5254H158.106L158.102 22.5215Z" fill="#131313"/>
<path d="M181.257 6.83417L171.689 29.9766H166.659L170.159 21.9904L163.956 6.83417H169.176L172.703 16.648L176.203 6.83417H181.26H181.257Z" fill="#131313"/>
<path d="M181.898 22.0021C181.378 21.5061 181.12 20.893 181.12 20.1588C181.12 19.4246 181.378 18.7802 181.898 18.2765C182.418 17.7688 183.087 17.5189 183.907 17.5189C184.727 17.5189 185.368 17.7727 185.888 18.2765C186.409 18.7842 186.667 19.409 186.667 20.1588C186.667 20.9086 186.409 21.5022 185.888 22.0021C185.368 22.498 184.708 22.748 183.907 22.748C183.106 22.748 182.418 22.498 181.898 22.0021Z" fill="#6553C9"/>
</g>
<defs>
<clipPath id="clip0_1079_1169">
<rect width="186.667" height="30" fill="white"/>
</clipPath>
</defs>
</svg>
